<svg width="3847" height="360" viewBox="0 0 3847 360" fill="none" xmlns="http://www.w3.org/2000/svg">
<path d="M112.402 243.695C113.512 268.015 116.298 273.826 129.64 278.582C137.999 281.767 169.713 283.876 205.323 283.876C336.073 283.876 351.658 280.175 351.658 251.098C351.658 236.829 344.409 226.262 332.721 222.56C324.566 220.092 301.015 218.679 262.067 218.32H159.7C91.2445 218.32 62.8835 214.618 38.9397 202.996C12.2323 189.782 0 161.76 0 113.658C0 50.2112 18.9149 23.2654 72.3296 11.1055C102.389 3.70185 145.769 1.05469 227.024 1.05469C357.208 1.05469 387.268 4.21842 413.975 20.6183C439.55 36.9965 447.909 58.6693 447.909 111.549H337.749C337.749 80.8801 326.604 76.6403 253.731 76.6403C217.555 76.6403 169.146 77.7164 151.342 78.771C121.304 80.8801 111.292 88.2838 111.292 108.364C111.292 123.171 119.062 132.684 135.213 136.386C141.896 137.978 144.115 138.495 180.835 139.033H285.988C296.001 139.033 346.086 140.626 365.001 141.68C435.654 144.844 463.494 174.458 463.494 245.287C463.494 310.306 443.446 338.844 388.922 349.949C361.104 355.76 306.013 358.946 225.348 358.946C96.817 358.946 68.4333 356.298 35.6098 340.437C12.7986 329.869 1.11 302.902 1.11 261.149C1.11 257.964 1.11 251.098 1.67631 243.695L112.402 243.695Z" fill="white"/>
<path d="M551.136 3.69727H664.082V135.326H723.069L876.631 3.69727H1031.87L818.754 178.134L1052.46 356.294H888.32L720.849 220.963H664.082V356.294H551.136L551.136 3.69727Z" fill="white"/>
<path d="M1300.94 234.177L1088.93 3.69727H1233.05L1358.25 149.595L1482.34 3.69727H1623.64L1414.43 234.177V356.294H1300.94L1300.94 234.177Z" fill="white"/>
<path d="M1840.93 90.9262H1675.7V3.69727H2119.15V90.9262H1953.87V356.294H1840.93V90.9262Z" fill="white"/>
<path d="M2191.14 3.69727H2511.08C2576.73 3.69727 2605.68 8.97021 2626.84 25.8865C2648.54 42.2864 2658.55 72.4173 2658.55 120.003C2658.55 185.537 2641.83 211.45 2594.53 221.501C2640.75 228.883 2654.65 247.392 2653.52 300.788V356.294H2538.9V312.41C2538.36 274.359 2527.21 266.417 2476.6 267.472H2303.54V356.294H2191.14V3.69727ZM2479.91 181.319C2534.46 181.319 2545.02 174.97 2545.02 140.083C2545.02 117.355 2542.8 107.843 2535.59 100.439C2527.21 91.9808 2517.79 90.3882 2483.81 90.3882H2303.54V181.319H2479.91Z" fill="white"/>
<path d="M3152.37 5.29443C3209.69 15.3238 3237.5 43.3455 3245.3 99.9055C3247.52 114.175 3248.65 142.734 3248.65 185.542C3248.65 270.662 3239.18 305.011 3207.47 329.869C3185.22 347.84 3154.05 356.298 3100.09 358.407C3080.07 359.462 3030.5 360 2994.35 360C2905.92 360 2860.84 358.407 2838.55 354.189C2797.41 347.302 2773.49 332.516 2759.58 306.604C2745.08 280.713 2741.77 254.8 2741.77 177.622C2741.77 118.415 2742.86 103.607 2749.52 79.8254C2760.12 42.291 2781.82 22.2108 2823.55 10.5674C2854.72 2.10921 2888.65 0 2986.56 0C3093.39 0 3126.23 1.05461 3152.37 5.29443ZM2875.29 98.8509C2860.25 109.956 2855.81 127.389 2855.81 178.138C2855.81 229.963 2860.25 248.989 2874.16 260.094C2889.2 271.716 2907.55 273.826 2992.67 273.826C3090.08 273.826 3110.11 270.662 3122.88 253.745C3133.48 241.047 3136.25 223.076 3136.25 176.029C3136.25 87.229 3134.57 86.1745 2995.48 86.1745C2912.57 86.1745 2889.74 88.8001 2875.29 98.8509Z" fill="white"/>
<path d="M3337.94 3.69727H3517.67L3742.47 271.712L3739.71 3.69727H3846.54V356.294H3665.14L3443.69 90.9262L3446.45 356.294H3337.94V3.69727Z" fill="white"/>
</svg>
